HIERARCHY
ROOT Pelvis
{
	OFFSET 0.000000 0.000000 0.000000
	CHANNELS 6 Xposition Yposition Zposition Xrotation Yrotation Zrotation
	JOINT LeftUpLeg_virtual
	{
		OFFSET 0.000000 0.000000 0.000000
		CHANNELS 3 Xrotation Yrotation Zrotation
		JOINT LeftUpLeg
		{
			OFFSET 8.479700 -4.795502 -0.379100
			CHANNELS 3 Xrotation Yrotation Zrotation
			JOINT LeftLeg
			{
				OFFSET 0.024144 -32.555107 0.112900
				CHANNELS 3 Xrotation Yrotation Zrotation
				JOINT LeftFoot
				{
					OFFSET -0.024144 -32.638630 -3.012600
					CHANNELS 3 Xrotation Yrotation Zrotation
					JOINT LeftToeBase
					{
						OFFSET 0.970200 -13.225400 11.864200
						CHANNELS 3 Xrotation Yrotation Zrotation
						End Site
						{
							OFFSET 0 0 0
						}
					}
				}
			}
		}
	}
	JOINT RightUpLeg_virtual
	{
		OFFSET 0.000000 0.000000 0.000000
		CHANNELS 3 Xrotation Yrotation Zrotation
		JOINT RightUpLeg
		{
			OFFSET -8.479700 -4.795502 -0.379100
			CHANNELS 3 Xrotation Yrotation Zrotation
			JOINT RightLeg
			{
				OFFSET -0.023144 -32.555092 0.112900
				CHANNELS 3 Xrotation Yrotation Zrotation
				JOINT RightFoot
				{
					OFFSET 0.023144 -32.638641 -3.012700
					CHANNELS 3 Xrotation Yrotation Zrotation
					JOINT RightToeBase
					{
						OFFSET -0.970200 -13.225400 11.864200
						CHANNELS 3 Xrotation Yrotation Zrotation
						End Site
						{
							OFFSET 0 0 0
						}
					}
				}
			}
		}
	}
	JOINT Hips_virtual
	{
		OFFSET 0.000000 0.000000 0.000000
		CHANNELS 3 Xrotation Yrotation Zrotation
		JOINT Hips
		{
			OFFSET -0.000000 -0.000000 -0.000000
			CHANNELS 3 Xrotation Yrotation Zrotation
			JOINT Spine
			{
				OFFSET 0.000000 7.722000 1.166200
				CHANNELS 3 Xrotation Yrotation Zrotation
				JOINT Spine1
				{
					OFFSET 0.000000 12.024101 0.248800
					CHANNELS 3 Xrotation Yrotation Zrotation
					JOINT Spine2
					{
						OFFSET 0.000000 11.502998 -0.491200
						CHANNELS 3 Xrotation Yrotation Zrotation
						JOINT Neck_virtual
						{
							OFFSET 0.000000 0.000000 0.000000
							CHANNELS 3 Xrotation Yrotation Zrotation
							JOINT Neck
							{
								OFFSET 0.000000 18.430702 -3.123100
								CHANNELS 3 Xrotation Yrotation Zrotation
								JOINT Head
								{
									OFFSET 0.000000 9.051102 1.034000
									CHANNELS 3 Xrotation Yrotation Zrotation
									End Site
									{
										OFFSET 0 0 0
									}
								}
							}
						}
						JOINT LeftShoulder_virtual
						{
							OFFSET 0.000000 0.000000 0.000000
							CHANNELS 3 Xrotation Yrotation Zrotation
							JOINT LeftShoulder
							{
								OFFSET 6.197800 13.665199 -4.064700
								CHANNELS 3 Xrotation Yrotation Zrotation
								JOINT LeftArm
								{
									OFFSET 7.778100 -0.187103 -1.709300
									CHANNELS 3 Xrotation Yrotation Zrotation
									JOINT LeftForeArm
									{
										OFFSET 22.049376 0.000000 0.000000
										CHANNELS 3 Xrotation Yrotation Zrotation
										JOINT LeftHand
										{
											OFFSET 23.009392 0.000000 0.000000
											CHANNELS 3 Xrotation Yrotation Zrotation
											End Site
											{
												OFFSET 0 0 0
											}
										}
									}
								}
							}
						}
						JOINT RightShoulder_virtual
						{
							OFFSET 0.000000 0.000000 0.000000
							CHANNELS 3 Xrotation Yrotation Zrotation
							JOINT RightShoulder
							{
								OFFSET -6.197800 13.665199 -4.064700
								CHANNELS 3 Xrotation Yrotation Zrotation
								JOINT RightArm
								{
									OFFSET -7.778100 -0.187103 -1.709300
									CHANNELS 3 Xrotation Yrotation Zrotation
									JOINT RightForeArm
									{
										OFFSET -22.049376 0.000000 0.000000
										CHANNELS 3 Xrotation Yrotation Zrotation
										JOINT RightHand
										{
											OFFSET -23.009392 0.000000 0.000000
											CHANNELS 3 Xrotation Yrotation Zrotation
											End Site
											{
												OFFSET 0 0 0
											}
										}
									}
								}
							}
						}
					}
				}
			}
		}
	}
}
MOTION
Frames: 11
Frame Time: 0.03333333
-6.203271 83.825317 -1.037567 0.000000 0.000000 0.000000 -1.802890 -80.151901 -5.147621 -21.488489 16.748703 16.650623 22.997464 -0.315279 -1.483851 9.382625 5.998390 -11.501706 0.000000 0.000000 0.000000 -2.813816 -73.865559 -0.974146 -21.400928 -22.929054 -5.433170 27.808659 7.896279 -13.465888 -2.669349 0.281534 9.728950 0.000000 0.000000 0.000000 -7.344847 -74.463897 -7.528001 -4.197568 -0.697412 1.969055 2.137970 -0.421814 -1.539958 6.777859 -1.220567 2.497772 0.000000 0.000000 0.000000 5.176132 -0.229144 -2.047107 -0.868598 11.469188 -1.081565 0.000000 0.000000 0.000000 6.448852 -0.506290 -0.973731 -4.338159 7.991046 0.996069 35.286998 -72.405176 -28.333964 -2.291502 -31.657442 -1.774627 0.000000 0.000000 0.000000 2.634127 2.524681 0.634596 6.656887 1.138256 12.777757 20.811503 25.044953 46.607835 0.527805 65.333696 -0.499071 0.000000 0.000000 0.000000 
-6.226768 83.822556 -1.046312 0.000000 0.000000 0.000000 -1.697011 -80.048253 -5.039987 -21.547606 16.731351 16.633537 23.149946 -0.363902 -1.408012 9.320230 6.024704 -11.417421 0.000000 0.000000 0.000000 -2.564657 -73.900304 -0.794518 -21.331336 -22.853557 -5.427570 27.708950 7.816696 -13.430646 -2.677761 0.269994 9.670675 0.000000 0.000000 0.000000 -7.406503 -74.388191 -7.563583 -4.204729 -0.689802 1.973163 2.050058 -0.472709 -1.489236 6.776304 -1.236943 2.554723 0.000000 0.000000 0.000000 5.169831 -0.227175 -2.036985 -1.032187 11.505711 -1.100912 0.000000 0.000000 0.000000 6.399237 -0.519782 -0.912203 -4.251977 7.887002 1.030334 35.935340 -72.345705 -27.773110 -2.349462 -31.813266 -1.852135 0.000000 0.000000 0.000000 2.625828 2.601343 0.667007 6.592030 1.119059 12.689633 20.904583 25.108568 46.638707 0.527805 65.333696 -0.499071 0.000000 0.000000 0.000000 
-6.234713 83.827110 -1.043234 0.000000 0.000000 0.000000 -1.621943 -79.882962 -5.040171 -21.640642 16.547346 16.558641 23.298646 -0.306544 -1.215539 9.208607 5.991579 -11.387851 0.000000 0.000000 0.000000 -2.295273 -73.758195 -0.583506 -21.283505 -22.726269 -5.426784 27.570455 7.687764 -13.406396 -2.718173 0.238999 9.517988 0.000000 0.000000 0.000000 -7.545676 -74.315955 -7.700821 -4.254477 -0.686727 1.985470 2.125013 -0.549366 -1.396701 6.753364 -1.248505 2.588228 0.000000 0.000000 0.000000 5.169679 -0.233279 -2.027481 -1.262037 11.568086 -1.274136 0.000000 0.000000 0.000000 6.266115 -0.542032 -0.846941 -4.077443 7.737535 0.857403 37.360619 -72.214613 -26.443890 -2.426522 -32.057411 -1.938217 0.000000 0.000000 0.000000 2.656895 2.743012 0.731337 6.391239 1.121855 12.506196 21.127621 25.145499 46.596216 0.527805 65.333696 -0.499071 0.000000 0.000000 0.000000 
-6.217754 83.823891 -1.061188 0.000000 0.000000 0.000000 -1.474202 -79.768762 -5.002855 -21.765450 16.330856 16.454595 23.404920 -0.163681 -0.946135 9.067410 5.909060 -11.416914 0.000000 0.000000 0.000000 -2.144224 -73.550592 -0.451687 -21.245143 -22.639943 -5.416991 27.439920 7.503095 -13.403059 -2.782062 0.208243 9.351047 0.000000 0.000000 0.000000 -7.746245 -74.302431 -7.894615 -4.328064 -0.739724 1.999600 2.362927 -0.651334 -1.265989 6.738522 -1.250064 2.595076 0.000000 0.000000 0.000000 5.203034 -0.235112 -2.003707 -1.455812 11.610321 -1.590275 0.000000 0.000000 0.000000 6.078925 -0.557834 -0.790401 -3.855630 7.642482 0.575067 39.274909 -72.195427 -24.573619 -2.483612 -32.276599 -1.998768 0.000000 0.000000 0.000000 2.750649 2.947710 0.826342 6.094670 1.156155 12.277711 21.509623 25.049724 46.559911 0.527805 65.333696 -0.499071 0.000000 0.000000 0.000000 
-6.174829 83.820961 -1.084791 0.000000 0.000000 0.000000 -1.286492 -79.824899 -4.924356 -21.884819 16.298177 16.351142 23.458327 0.027921 -0.644025 8.980088 5.844160 -11.485873 0.000000 0.000000 0.000000 -2.153499 -73.404016 -0.464749 -21.268104 -22.624633 -5.416294 27.351405 7.302335 -13.437973 -2.839866 0.188192 9.255190 0.000000 0.000000 0.000000 -7.978420 -74.346240 -8.080109 -4.422171 -0.800720 2.007359 2.705303 -0.737526 -1.137454 6.754371 -1.219567 2.555555 0.000000 0.000000 0.000000 5.279756 -0.202036 -1.977874 -1.560839 11.574039 -2.032624 0.000000 0.000000 0.000000 5.880791 -0.537896 -0.765081 -3.655527 7.669642 0.338495 41.275523 -72.482890 -22.427423 -2.455785 -32.421211 -1.995613 0.000000 0.000000 0.000000 2.916346 3.208101 0.954580 5.751097 1.208309 12.094195 21.944491 24.701654 46.642703 0.527805 65.333696 -0.499071 0.000000 0.000000 0.000000 
-6.076927 83.826942 -1.107748 0.000000 0.000000 0.000000 -1.437183 -80.025747 -5.123103 -21.985559 16.555093 16.294478 23.423333 0.246460 -0.358331 8.955919 5.796262 -11.660087 0.000000 0.000000 0.000000 -2.325012 -73.428570 -0.583931 -21.354423 -22.540529 -5.373638 27.325697 7.146908 -13.518847 -2.859133 0.169564 9.269662 0.000000 0.000000 0.000000 -8.249850 -74.490658 -8.188576 -4.536220 -0.876829 1.994460 3.046794 -0.733680 -1.067783 6.820352 -1.130648 2.446797 0.000000 0.000000 0.000000 5.388224 -0.102758 -1.978498 -1.600679 11.394755 -2.540408 0.000000 0.000000 0.000000 5.776560 -0.467684 -0.794812 -3.511367 7.859853 0.312070 43.137299 -73.011806 -20.160471 -2.339984 -32.612692 -1.937714 0.000000 0.000000 0.000000 3.129073 3.509522 1.107841 5.417346 1.246864 12.002574 22.231192 24.105700 46.896612 0.527805 65.333696 -0.499071 0.000000 0.000000 0.000000 
-5.938129 83.842033 -1.154648 0.000000 0.000000 0.000000 -1.775393 -80.404106 -5.448097 -22.193597 17.034166 16.328552 23.351380 0.446934 -0.113523 9.123394 5.842618 -11.953237 0.000000 0.000000 0.000000 -2.439073 -73.803541 -0.546338 -21.584660 -22.224339 -5.289582 27.393594 7.122666 -13.665513 -2.829979 0.126904 9.394023 0.000000 0.000000 0.000000 -8.613850 -74.766495 -8.266971 -4.637902 -0.984011 1.929820 3.294878 -0.643953 -1.083985 6.962534 -0.989691 2.247932 0.000000 0.000000 0.000000 5.527272 0.067336 -2.038225 -1.702864 11.087243 -3.057553 0.000000 0.000000 0.000000 5.851568 -0.368565 -0.870666 -3.449245 8.087038 0.569633 44.410129 -73.391933 -18.289056 -2.147719 -33.229000 -1.850009 0.000000 0.000000 0.000000 3.357998 3.834320 1.272860 5.149929 1.242223 11.966331 22.302960 23.453080 47.183691 0.527805 65.333696 -0.499071 0.000000 0.000000 0.000000 
-5.751446 83.836609 -1.264780 0.000000 0.000000 0.000000 -2.170489 -80.978702 -5.781792 -22.612448 17.589568 16.433340 23.386853 0.670829 0.081101 9.482492 6.014777 -12.333716 0.000000 0.000000 0.000000 -2.402876 -74.410868 -0.246226 -22.066833 -21.703264 -5.229755 27.697790 7.291911 -13.896115 -2.735498 0.049590 9.587257 0.000000 0.000000 0.000000 -9.171897 -75.171539 -8.448075 -4.746059 -1.058442 1.848743 3.452346 -0.486112 -1.210239 7.197956 -0.814001 1.954829 0.000000 0.000000 0.000000 5.698277 0.287537 -2.176917 -2.008965 10.715814 -3.530124 0.000000 0.000000 0.000000 6.172324 -0.268069 -0.991394 -3.489703 8.242916 0.992852 43.909165 -72.999306 -18.165499 -1.910686 -34.845098 -1.760076 0.000000 0.000000 0.000000 3.546574 4.161198 1.439553 5.000621 1.111923 11.967372 22.076553 22.972421 47.413049 0.527805 65.333696 -0.499071 0.000000 0.000000 0.000000 
-5.503736 83.730728 -1.486759 0.000000 0.000000 0.000000 -2.604253 -81.664242 -6.120016 -23.379449 17.885801 16.577433 23.872259 1.041136 0.251095 9.782556 6.294412 -12.691394 0.000000 0.000000 0.000000 -2.411916 -75.126412 0.113857 -22.871565 -21.076294 -5.199791 28.434211 7.636021 -14.182523 -2.612714 -0.046805 9.790016 0.000000 0.000000 0.000000 -10.047172 -75.723193 -8.930557 -4.852727 -1.125506 1.741495 3.574819 -0.343864 -1.394552 7.564238 -0.656240 1.627568 0.000000 0.000000 0.000000 5.972751 0.492125 -2.343518 -2.584961 10.346902 -3.910805 0.000000 0.000000 0.000000 6.780459 -0.221038 -1.142438 -3.622407 8.271185 1.490022 41.257266 -71.442385 -20.205892 -1.734477 -37.856016 -1.729498 0.000000 0.000000 0.000000 3.640535 4.452338 1.592107 5.029795 0.771034 11.952291 21.547616 22.943321 47.477140 0.527805 65.333696 -0.499071 0.000000 0.000000 0.000000 
-5.206315 83.403778 -1.776819 0.000000 0.000000 0.000000 -2.784692 -82.492218 -6.162765 -24.615614 17.589180 16.746014 25.262225 1.704590 0.427201 9.692306 6.734998 -12.849106 0.000000 0.000000 0.000000 -2.649304 -75.811562 0.301166 -24.132518 -20.520385 -5.257324 29.949656 8.057833 -14.485771 -2.502565 -0.125955 9.952098 0.000000 0.000000 0.000000 -11.236888 -76.368168 -9.813577 -4.952536 -1.165832 1.660200 3.688063 -0.302813 -1.619504 8.090928 -0.597386 1.343333 0.000000 0.000000 0.000000 6.464903 0.581864 -2.463186 -3.377991 10.028687 -4.227371 0.000000 0.000000 0.000000 7.623985 -0.276909 -1.303022 -3.823079 8.193473 2.028567 37.589676 -68.703131 -23.298861 -1.682863 -42.399103 -1.795281 0.000000 0.000000 0.000000 3.625221 4.669806 1.715415 5.278929 0.126397 11.817881 20.901514 23.717210 47.297749 0.527805 65.333696 -0.499071 0.000000 0.000000 0.000000 
-4.904881 82.746162 -2.164293 0.000000 0.000000 0.000000 -2.941486 -83.455425 -6.164882 -26.326339 16.464352 16.944299 27.850769 2.740999 0.561598 8.890202 7.255602 -12.793493 0.000000 0.000000 0.000000 -3.196105 -76.361426 0.172143 -25.867144 -20.193736 -5.445353 32.420794 8.458108 -14.741705 -2.443374 -0.158437 10.045186 0.000000 0.000000 0.000000 -12.713824 -77.083486 -11.088695 -5.043063 -1.194757 1.644926 3.882822 -0.397973 -1.843746 8.787531 -0.701610 1.166563 0.000000 0.000000 0.000000 7.272714 0.467218 -2.460830 -4.205996 9.769492 -4.494036 0.000000 0.000000 0.000000 8.630306 -0.473814 -1.449039 -4.042762 8.014473 2.671174 34.323596 -65.339188 -26.063848 -1.831006 -48.168284 -2.019566 0.000000 0.000000 0.000000 3.487704 4.771596 1.788576 5.764981 -0.931597 11.514300 20.242461 25.424961 46.840399 0.527805 65.333696 -0.499071 0.000000 0.000000 0.000000 
